<svg width="18" height="18" viewBox="0 0 18 18" fill="none" xmlns="http://www.w3.org/2000/svg">
<path d="M13.7999 17.0001H4.19998C2.43252 17.0001 1 15.5675 1 13.8001C1 12.0326 2.43252 10.6001 4.19998 10.6001H13.7999" stroke="#B2B2B2" stroke-miterlimit="10" stroke-linecap="round" stroke-linejoin="round"/>
<path d="M13.8001 17.0001C15.5674 17.0001 17.0001 15.5674 17.0001 13.8001C17.0001 12.0328 15.5674 10.6001 13.8001 10.6001C12.0328 10.6001 10.6001 12.0328 10.6001 13.8001C10.6001 15.5674 12.0328 17.0001 13.8001 17.0001Z" stroke="#B2B2B2" stroke-miterlimit="10" stroke-linecap="round" stroke-linejoin="round"/>
<path d="M4.19995 1H13.7999C15.5673 1 16.9999 2.43252 16.9999 4.19998C16.9999 5.96744 15.5673 7.39996 13.7999 7.39996H4.19995" stroke="#B2B2B2" stroke-miterlimit="10" stroke-linecap="round" stroke-linejoin="round"/>
<path d="M4.19998 7.39996C5.96728 7.39996 7.39996 5.96728 7.39996 4.19998C7.39996 2.43268 5.96728 1 4.19998 1C2.43268 1 1 2.43268 1 4.19998C1 5.96728 2.43268 7.39996 4.19998 7.39996Z" stroke="#B2B2B2" stroke-miterlimit="10" stroke-linecap="round" stroke-linejoin="round"/>
</svg>
